<?xml version="1.0" encoding="UTF-8"?>
<svg xmlns="http://www.w3.org/2000/svg" id="Layer_2" data-name="Layer 2" viewBox="0 0 179.49 57.85">
  <defs>
    <style>
      .cls-1 {
        fill: #3fb4d9;
        stroke-width: 0px;
      }
    </style>
  </defs>
  <g id="Layer_1-2" data-name="Layer 1">
    <g>
      <path class="cls-1" d="M121.33,35.23c-.06-2.12-.58-4.13-1.54-6.02-3.49-6.87-12.05-9.04-18.2-4.62-5.15,3.71-6.94,10.73-4.26,16.7,2.29,5.09,7.58,8.16,12.91,7.44,6.53-.88,11.2-6.68,11.09-13.49M130.68,57.53h-9.47v-5.89c-.39.51-.67.93-1,1.31-1.9,2.21-4.36,3.45-7.15,4.13-9.6,2.34-20.16-2.34-24.8-11.02-1.67-3.12-2.44-6.48-2.56-10-.21-6.21,2.09-11.44,6.29-15.88,3.07-3.24,6.78-5.45,11.16-6.4,5.51-1.19,10.6-.08,15.3,2.94.72.47,1.42.98,2.19,1.52V0h10.02v57.53Z"/>
      <path class="cls-1" d="M121.33,35.23c-.06-2.12-.58-4.13-1.54-6.02-3.49-6.87-12.05-9.04-18.2-4.62-5.15,3.71-6.94,10.73-4.26,16.7,2.29,5.09,7.58,8.16,12.91,7.44,6.53-.88,11.2-6.68,11.09-13.49ZM130.68,57.53h-9.47v-5.89c-.39.51-.67.93-1,1.31-1.9,2.21-4.36,3.45-7.15,4.13-9.6,2.34-20.16-2.34-24.8-11.02-1.67-3.12-2.44-6.48-2.56-10-.21-6.21,2.09-11.44,6.29-15.88,3.07-3.24,6.78-5.45,11.16-6.4,5.51-1.19,10.6-.08,15.3,2.94.72.47,1.42.98,2.19,1.52V0h10.02v57.53Z"/>
      <path class="cls-1" d="M54.08,57.54h-9.68V13.3h9.14v4.32c.15-.1.23-.14.3-.2,3.25-2.67,7.03-3.9,11.19-4.07,2.49-.1,4.94.17,7.27,1.1,3.87,1.55,6.32,4.46,7.81,8.26,1.11,2.83,1.59,5.79,1.6,8.82.03,8.47,0,16.94,0,25.42v.58h-9.92v-.65c0-7.92.03-15.84-.02-23.76-.02-2.68-.64-5.24-2.06-7.56-1.5-2.45-3.7-3.8-6.57-3.89-4.1-.14-7.89,2.84-8.76,6.86-.19.87-.29,1.78-.3,2.67-.02,8.54-.01,17.08-.01,25.62v.71Z"/>
      <path class="cls-1" d="M54.08,57.54h-9.68V13.3h9.14v4.32c.15-.1.23-.14.3-.2,3.25-2.67,7.03-3.9,11.19-4.07,2.49-.1,4.94.17,7.27,1.1,3.87,1.55,6.32,4.46,7.81,8.26,1.11,2.83,1.59,5.79,1.6,8.82.03,8.47,0,16.94,0,25.42v.58h-9.92v-.65c0-7.92.03-15.84-.02-23.76-.02-2.68-.64-5.24-2.06-7.56-1.5-2.45-3.7-3.8-6.57-3.89-4.1-.14-7.89,2.84-8.76,6.86-.19.87-.29,1.78-.3,2.67-.02,8.54-.01,17.08-.01,25.62v.71Z"/>
      <path class="cls-1" d="M27.66,13.28h9.65v44.25h-9.12v-4.26c-1.02.66-1.96,1.36-2.98,1.91-3.5,1.91-7.27,2.54-11.22,2.2-2.57-.22-4.98-.93-7.13-2.41-2.89-1.99-4.6-4.81-5.66-8.08C.37,44.33.02,41.68,0,38.99,0,30.61,0,22.22,0,13.84v-.54h9.92v.68c0,7.85-.03,15.7.02,23.55.02,2.89.68,5.66,2.32,8.1,1.51,2.25,3.67,3.53,6.37,3.48,3.5-.05,7.87-1.99,8.81-7.28.14-.81.21-1.65.21-2.47.02-8.49,0-16.98,0-25.47v-.61Z"/>
      <path class="cls-1" d="M27.66,13.28h9.65v44.25h-9.12v-4.26c-1.02.66-1.96,1.36-2.98,1.91-3.5,1.91-7.27,2.54-11.22,2.2-2.57-.22-4.98-.93-7.13-2.41-2.89-1.99-4.6-4.81-5.66-8.08C.37,44.33.02,41.68,0,38.99,0,30.61,0,22.22,0,13.84v-.54h9.92v.68c0,7.85-.03,15.7.02,23.55.02,2.89.68,5.66,2.32,8.1,1.51,2.25,3.67,3.53,6.37,3.48,3.5-.05,7.87-1.99,8.81-7.28.14-.81.21-1.65.21-2.47.02-8.49,0-16.98,0-25.47v-.61Z"/>
      <path class="cls-1" d="M151.62,14.07c.65,3.1,1.3,6.2,1.96,9.34-3.9,1.29-6.71,3.75-8.23,7.57-1.09,2.74-1.18,5.55-.29,8.36,1.78,5.64,7.11,9.3,12.95,8.85,6.15-.47,10.98-5.11,11.71-10.99.76-6.16-3.02-11.04-6.66-12.74v2.84s-.09.03-.14.05c-2.76-2.8-5.51-5.6-8.31-8.44,2.86-2.58,5.7-5.14,8.61-7.76v2.95c7.33,2.33,12.44,7,15.01,14.25,1.85,5.22,1.64,10.48-.43,15.62-4.15,10.29-15.38,15.95-26.16,13.19-10.57-2.7-17.63-12.6-16.7-23.43,1-11.65,10.04-18.29,16.69-19.66"/>
      <path class="cls-1" d="M151.62,14.07c.65,3.1,1.3,6.2,1.96,9.34-3.9,1.29-6.71,3.75-8.23,7.57-1.09,2.74-1.18,5.55-.29,8.36,1.78,5.64,7.11,9.3,12.95,8.85,6.15-.47,10.98-5.11,11.71-10.99.76-6.16-3.02-11.04-6.66-12.74v2.84s-.09.03-.14.05c-2.76-2.8-5.51-5.6-8.31-8.44,2.86-2.58,5.7-5.14,8.61-7.76v2.95c7.33,2.33,12.44,7,15.01,14.25,1.85,5.22,1.64,10.48-.43,15.62-4.15,10.29-15.38,15.95-26.16,13.19-10.57-2.7-17.63-12.6-16.7-23.43,1-11.65,10.04-18.29,16.69-19.66Z"/>
    </g>
  </g>
</svg>